<?xml version="1.0" encoding="utf-8"?>
<!-- Generator: Adobe Illustrator 16.0.0, SVG Export Plug-In . SVG Version: 6.00 Build 0)  -->
<!DOCTYPE svg PUBLIC "-//W3C//DTD SVG 1.1//EN" "http://www.w3.org/Graphics/SVG/1.1/DTD/svg11.dtd" [
	<!ENTITY ns_flows "http://ns.adobe.com/Flows/1.0/">
	<!ENTITY ns_extend "http://ns.adobe.com/Extensibility/1.0/">
	<!ENTITY ns_ai "http://ns.adobe.com/AdobeIllustrator/10.0/">
	<!ENTITY ns_graphs "http://ns.adobe.com/Graphs/1.0/">
]>
<svg version="1.1" id="Capa_1" xmlns:x="&ns_extend;" xmlns:i="&ns_ai;" xmlns:graph="&ns_graphs;"
	 xmlns="http://www.w3.org/2000/svg" xmlns:xlink="http://www.w3.org/1999/xlink" xmlns:a="http://ns.adobe.com/AdobeSVGViewerExtensions/3.0/"
	 x="0px" y="0px" width="300px" height="80px" viewBox="0 0 300 80" enable-background="new 0 0 300 80" xml:space="preserve">
<g>
	<path fill="#FFFFFF" d="M163.303,70.709v0.18v0.223c0,0.738,0.38,0.963,1.835,1.074v0.537c-1.097-0.09-1.611-0.112-2.193-0.112
		c-0.604,0-1.096,0.022-2.259,0.112v-0.537c1.565-0.111,1.79-0.291,1.856-1.477l0.447-11.006l0.023-0.134
		c0.021-0.157-0.09-0.671-0.135-0.806c-0.18-0.313-0.693-0.492-1.723-0.537v-0.559c0.873,0.066,1.297,0.09,1.834,0.09
		c0.761,0,1.23-0.023,2.125-0.112l4.161,11.319l4.206-11.319c1.051,0.089,1.543,0.112,2.146,0.112c0.492,0,0.895-0.023,1.768-0.09
		v0.537c-1.409,0.089-1.834,0.357-1.834,1.096v0.224v0.179l0.223,11.006c0,1.164,0.27,1.387,1.857,1.477v0.537
		c-1.253-0.112-1.879-0.156-2.797-0.156c-0.961,0-1.565,0.044-2.795,0.156v-0.537c0.604-0.022,0.984-0.09,1.297-0.224
		c0.336-0.134,0.425-0.246,0.515-0.671c0.044-0.246,0.044-0.381,0.044-0.471l-0.021-0.111l-0.18-11.609l-3.713,9.977
		c-0.066,0.224-0.18,0.515-0.357,1.029c-0.135,0.336-0.381,1.051-0.762,2.125h-0.335l-0.536-1.588l-0.604-1.656l-3.646-9.932
		L163.303,70.709z"/>
	<path fill="#FFFFFF" d="M187.702,69.211c-0.268,2.304-1.744,3.668-3.981,3.668c-2.751,0-4.497-2.125-4.497-5.525
		c0-3.288,1.768-5.48,4.385-5.48c2.528,0,4.004,1.901,4.072,5.257h-6.645c0.045,1.655,0.156,2.461,0.426,3.199
		c0.469,1.186,1.319,1.812,2.527,1.812c1.543,0,2.55-1.051,2.841-2.93H187.702z M185.891,66.324
		c-0.112-2.617-0.851-3.869-2.304-3.869c-1.455,0-2.282,1.297-2.506,3.869H185.891z"/>
	<path fill="#FFFFFF" d="M189.243,62.275c1.186-0.111,2.146-0.291,2.953-0.536c0.133,0.872,0.178,1.229,0.201,2.125
		c0.514-1.298,1.453-2.036,2.594-2.036c1.142,0,1.947,0.761,1.947,1.813c0,0.648-0.358,1.074-0.918,1.074
		c-0.537,0-0.917-0.314-0.917-0.738c0-0.135,0-0.135,0.067-0.471c0.021-0.066,0.021-0.134,0.021-0.201
		c0-0.313-0.29-0.537-0.67-0.537c-1.164,0-1.902,1.41-1.902,3.624v4.675c0,0.963,0.225,1.142,1.589,1.209v0.447
		c-1.163-0.112-1.723-0.135-2.483-0.135c-0.76,0-1.342,0.022-2.505,0.135v-0.447c1.364-0.067,1.61-0.246,1.61-1.209V64.11
		c0-1.388-0.022-1.432-1.588-1.454V62.275z"/>
	<path fill="#FFFFFF" d="M205.659,65.318h-0.492c-0.18-0.783-0.291-1.141-0.537-1.588c-0.425-0.806-1.207-1.298-2.058-1.298
		c-1.678,0-2.662,1.834-2.662,5.011c0,3.109,0.896,4.72,2.595,4.72c1.387,0,2.215-0.984,2.482-2.952h0.896
		c-0.269,2.393-1.544,3.69-3.557,3.69c-2.595,0-4.362-2.215-4.362-5.458c0-3.333,1.813-5.615,4.43-5.615
		c0.961,0,1.565,0.246,2.281,0.939l0.582-1.141h0.402V65.318z"/>
	<path fill="#FFFFFF" d="M216.169,69.211c-0.268,2.304-1.744,3.668-3.98,3.668c-2.752,0-4.496-2.125-4.496-5.525
		c0-3.288,1.767-5.48,4.384-5.48c2.528,0,4.004,1.901,4.071,5.257h-6.645c0.045,1.655,0.157,2.461,0.426,3.199
		c0.47,1.186,1.32,1.812,2.527,1.812c1.544,0,2.551-1.051,2.842-2.93H216.169z M214.358,66.324
		c-0.112-2.617-0.851-3.869-2.305-3.869s-2.281,1.297-2.506,3.869H214.358z"/>
	<path fill="#FFFFFF" d="M228.112,72.297c-1.566,0.201-2.036,0.291-2.953,0.582c-0.201-0.828-0.224-0.962-0.291-1.789
		c-0.671,1.274-1.498,1.834-2.773,1.834c-2.438,0-4.16-2.281-4.16-5.48s1.699-5.48,4.093-5.48c1.186,0,1.812,0.402,2.662,1.744
		v-3.914c0-1.163-0.179-1.32-1.565-1.32V58.07c1.096-0.09,2.393-0.313,3.355-0.582v12.908c0,1.342,0.156,1.477,1.633,1.521V72.297z
		 M219.813,67.421c0,3.177,0.871,4.876,2.482,4.876c1.588,0,2.416-1.61,2.416-4.675c0-3.333-0.85-5.033-2.482-5.033
		C220.618,62.589,219.813,64.223,219.813,67.421z"/>
	<path fill="#FFFFFF" d="M237.861,69.211c-0.269,2.304-1.745,3.668-3.981,3.668c-2.752,0-4.496-2.125-4.496-5.525
		c0-3.288,1.768-5.48,4.385-5.48c2.527,0,4.004,1.901,4.07,5.257h-6.644c0.045,1.655,0.157,2.461,0.425,3.199
		c0.471,1.186,1.32,1.812,2.528,1.812c1.544,0,2.55-1.051,2.841-2.93H237.861z M236.05,66.324c-0.111-2.617-0.85-3.869-2.305-3.869
		c-1.453,0-2.281,1.297-2.505,3.869H236.05z"/>
	<path fill="#FFFFFF" d="M239.917,69.188h0.492c0.134,0.717,0.268,1.097,0.492,1.566c0.447,0.873,1.387,1.432,2.416,1.432
		c1.297,0,2.303-0.873,2.303-2.014c0-0.693-0.335-1.141-1.252-1.61c-0.022-0.022-0.738-0.358-2.17-1.007
		c-1.633-0.76-2.125-1.387-2.125-2.684c0-1.768,1.364-2.976,3.355-2.976c0.85,0,1.477,0.201,2.281,0.716l0.381-0.917h0.38v3.468
		h-0.492c-0.201-1.79-0.962-2.641-2.349-2.641c-1.208,0-2.103,0.806-2.103,1.857c0,0.715,0.29,1.096,1.253,1.565
		c0.313,0.157,0.469,0.246,2.058,0.917c1.678,0.738,2.282,1.477,2.282,2.797c0,1.856-1.477,3.198-3.58,3.198
		c-1.029,0-1.856-0.29-2.707-0.917l-0.536,0.984h-0.38V69.188z"/>
	<path fill="#FFFFFF" d="M248.257,66.168h5.75v1.007h-5.75V66.168z"/>
	<path fill="#FFFFFF" d="M260.604,57.734c1.454,0,2.326,0.225,3.087,0.806c0.85,0.671,1.32,1.678,1.32,2.841
		c0,1.588-0.807,2.685-2.439,3.311c2.036,0.402,3.154,1.723,3.154,3.691c0,1.409-0.715,2.773-1.856,3.49
		c-0.895,0.581-1.834,0.782-3.512,0.782h-5.638v-0.537c1.633-0.134,1.835-0.29,1.835-1.476V59.771c0-1.186-0.224-1.387-1.835-1.477
		v-0.56H260.604z M259.954,64.513c1.23,0,1.835-0.179,2.327-0.738c0.515-0.56,0.737-1.274,0.737-2.349
		c0-2.103-0.805-2.998-2.684-2.998h-1.901v6.085H259.954z M258.434,70.82c0,0.984,0.201,1.142,1.364,1.142h0.828
		c1.99,0,3.109-1.253,3.109-3.489c0-1.074-0.291-1.991-0.806-2.528c-0.492-0.515-1.208-0.738-2.371-0.738h-2.125V70.82z"/>
	<path fill="#FFFFFF" d="M276.168,69.211c-0.269,2.304-1.745,3.668-3.981,3.668c-2.752,0-4.496-2.125-4.496-5.525
		c0-3.288,1.768-5.48,4.385-5.48c2.527,0,4.004,1.901,4.07,5.257h-6.644c0.045,1.655,0.157,2.461,0.425,3.199
		c0.471,1.186,1.32,1.812,2.528,1.812c1.544,0,2.55-1.051,2.841-2.93H276.168z M274.356,66.324c-0.111-2.617-0.85-3.869-2.305-3.869
		c-1.453,0-2.281,1.297-2.505,3.869H274.356z"/>
	<path fill="#FFFFFF" d="M277.731,62.365c1.252-0.179,2.215-0.381,2.952-0.671c0.112,0.38,0.202,1.118,0.246,1.946
		c0.806-1.208,1.723-1.745,3.021-1.745c1.186,0,2.215,0.537,2.773,1.454c0.336,0.537,0.492,1.297,0.492,2.349v5.368
		c0,0.963,0.224,1.142,1.61,1.209v0.447c-1.141-0.112-1.7-0.135-2.46-0.135c-0.738,0-1.32,0.022-2.416,0.135v-0.447
		c1.186-0.045,1.477-0.27,1.477-1.164v-5.48c0-1.028-0.09-1.521-0.358-1.945c-0.335-0.492-0.917-0.783-1.634-0.783
		c-0.76,0-1.476,0.357-1.9,0.962c-0.313,0.425-0.426,0.917-0.426,1.856v5.391c0,0.895,0.291,1.119,1.455,1.164v0.447
		c-1.097-0.112-1.678-0.135-2.416-0.135s-1.298,0.022-2.439,0.135v-0.447c1.388-0.067,1.611-0.246,1.611-1.209v-6.912
		c0-1.274-0.09-1.363-1.297-1.387h-0.291V62.365z"/>
	<path fill="#FFFFFF" d="M296.114,62.679h-2.482c-1.454,0-1.813,0.313-2.596,2.326h-0.469l0.514-2.908h7.428l-6.085,9.978h2.617
		c1.163,0,1.565-0.201,2.125-1.074c0.269-0.47,0.47-0.895,0.693-1.566h0.47l-0.582,3.222h-7.694L296.114,62.679z"/>
</g>
<linearGradient id="outer_1_" gradientUnits="userSpaceOnUse" x1="-187.3418" y1="145.3652" x2="-127.3366" y2="95.1109" gradientTransform="matrix(1 0 0 -1 200.3398 160.2383)">
	<stop  offset="0" style="stop-color:#FFFFFF"/>
	<stop  offset="0.1" style="stop-color:#E7E8E6"/>
	<stop  offset="0.1" style="stop-color:#CDD0D0"/>
	<stop  offset="0.2" style="stop-color:#B5BBBD"/>
	<stop  offset="0.2" style="stop-color:#A5ACAF"/>
	<stop  offset="0.3" style="stop-color:#9BA3A7"/>
	<stop  offset="0.3" style="stop-color:#98A0A4"/>
	<stop  offset="0.4" style="stop-color:#828A8F"/>
	<stop  offset="0.5" style="stop-color:#667075"/>
	<stop  offset="0.6" style="stop-color:#535C63"/>
	<stop  offset="0.7" style="stop-color:#475158"/>
	<stop  offset="0.8" style="stop-color:#434D54"/>
	<stop  offset="1" style="stop-color:#475157"/>
	<a:midPointStop  offset="0" style="stop-color:#FFFFFF"/>
	<a:midPointStop  offset="0.5" style="stop-color:#FFFFFF"/>
	<a:midPointStop  offset="0.1" style="stop-color:#E7E8E6"/>
	<a:midPointStop  offset="0.5" style="stop-color:#E7E8E6"/>
	<a:midPointStop  offset="0.1" style="stop-color:#CDD0D0"/>
	<a:midPointStop  offset="0.5" style="stop-color:#CDD0D0"/>
	<a:midPointStop  offset="0.2" style="stop-color:#B5BBBD"/>
	<a:midPointStop  offset="0.5" style="stop-color:#B5BBBD"/>
	<a:midPointStop  offset="0.2" style="stop-color:#A5ACAF"/>
	<a:midPointStop  offset="0.5" style="stop-color:#A5ACAF"/>
	<a:midPointStop  offset="0.3" style="stop-color:#9BA3A7"/>
	<a:midPointStop  offset="0.5" style="stop-color:#9BA3A7"/>
	<a:midPointStop  offset="0.3" style="stop-color:#98A0A4"/>
	<a:midPointStop  offset="0.5" style="stop-color:#98A0A4"/>
	<a:midPointStop  offset="0.4" style="stop-color:#828A8F"/>
	<a:midPointStop  offset="0.5" style="stop-color:#828A8F"/>
	<a:midPointStop  offset="0.5" style="stop-color:#667075"/>
	<a:midPointStop  offset="0.5" style="stop-color:#667075"/>
	<a:midPointStop  offset="0.6" style="stop-color:#535C63"/>
	<a:midPointStop  offset="0.5" style="stop-color:#535C63"/>
	<a:midPointStop  offset="0.7" style="stop-color:#475158"/>
	<a:midPointStop  offset="0.5" style="stop-color:#475158"/>
	<a:midPointStop  offset="0.8" style="stop-color:#434D54"/>
	<a:midPointStop  offset="0.5" style="stop-color:#434D54"/>
	<a:midPointStop  offset="1" style="stop-color:#475157"/>
</linearGradient>
<path id="outer_24_" fill="url(#outer_1_)" d="M82.125,40c0,21.625-17.5,39.125-39.125,39.125S3.875,61.625,3.875,40
	S21.375,0.875,43,0.875S82.125,18.375,82.125,40z M43,3.25C22.625,3.25,6.25,19.625,6.25,40S22.75,76.75,43,76.75
	c20.375,0,36.75-16.5,36.75-36.75C79.75,19.625,63.375,3.25,43,3.25z"/>
<linearGradient id="SVGID_1_" gradientUnits="userSpaceOnUse" x1="-185.4995" y1="143.915" x2="-129.2493" y2="96.6649" gradientTransform="matrix(1 0 0 -1 200.3398 160.2383)">
	<stop  offset="0" style="stop-color:#0B1F2A"/>
	<stop  offset="0.2" style="stop-color:#333F47"/>
	<stop  offset="0.5" style="stop-color:#777F84"/>
	<stop  offset="0.5" style="stop-color:#81898D"/>
	<stop  offset="0.7" style="stop-color:#B3B8B8"/>
	<stop  offset="0.8" style="stop-color:#D2D5D3"/>
	<stop  offset="0.8" style="stop-color:#DEE0DD"/>
	<stop  offset="1" style="stop-color:#FBFBFB"/>
	<a:midPointStop  offset="0" style="stop-color:#0B1F2A"/>
	<a:midPointStop  offset="0.5" style="stop-color:#0B1F2A"/>
	<a:midPointStop  offset="0.2" style="stop-color:#333F47"/>
	<a:midPointStop  offset="0.5" style="stop-color:#333F47"/>
	<a:midPointStop  offset="0.5" style="stop-color:#777F84"/>
	<a:midPointStop  offset="0.5" style="stop-color:#777F84"/>
	<a:midPointStop  offset="0.5" style="stop-color:#81898D"/>
	<a:midPointStop  offset="0.5" style="stop-color:#81898D"/>
	<a:midPointStop  offset="0.7" style="stop-color:#B3B8B8"/>
	<a:midPointStop  offset="0.5" style="stop-color:#B3B8B8"/>
	<a:midPointStop  offset="0.8" style="stop-color:#D2D5D3"/>
	<a:midPointStop  offset="0.5" style="stop-color:#D2D5D3"/>
	<a:midPointStop  offset="0.8" style="stop-color:#DEE0DD"/>
	<a:midPointStop  offset="0.5" style="stop-color:#DEE0DD"/>
	<a:midPointStop  offset="1" style="stop-color:#FBFBFB"/>
</linearGradient>
<path fill="url(#SVGID_1_)" d="M43,3.25C22.625,3.25,6.25,19.625,6.25,40S22.75,76.75,43,76.75c20.375,0,36.75-16.5,36.75-36.75
	C79.75,19.625,63.375,3.25,43,3.25z M43,74.375C24,74.375,8.625,59,8.625,40S24,5.625,43,5.625S77.375,21,77.375,40
	S62,74.375,43,74.375z"/>
<linearGradient id="SVGID_2_" gradientUnits="userSpaceOnUse" x1="1826.1396" y1="163.5322" x2="1853.5146" y2="88.2826" gradientTransform="matrix(-1 0 0 1 1882.8105 -85.9531)">
	<stop  offset="0" style="stop-color:#E1E3E1"/>
	<stop  offset="0.1" style="stop-color:#C1C5C4"/>
	<stop  offset="0.3" style="stop-color:#9BA1A2"/>
	<stop  offset="0.5" style="stop-color:#7D8487"/>
	<stop  offset="0.7" style="stop-color:#687074;stop-opacity:0"/>
	<stop  offset="0.8" style="stop-color:#5B6469;stop-opacity:0"/>
	<stop  offset="1" style="stop-color:#576065;stop-opacity:0"/>
	<a:midPointStop  offset="0" style="stop-color:#E1E3E1"/>
	<a:midPointStop  offset="0.5" style="stop-color:#E1E3E1"/>
	<a:midPointStop  offset="0.1" style="stop-color:#C1C5C4"/>
	<a:midPointStop  offset="0.5" style="stop-color:#C1C5C4"/>
	<a:midPointStop  offset="0.3" style="stop-color:#9BA1A2"/>
	<a:midPointStop  offset="0.5" style="stop-color:#9BA1A2"/>
	<a:midPointStop  offset="0.5" style="stop-color:#7D8487"/>
	<a:midPointStop  offset="0.5" style="stop-color:#7D8487"/>
	<a:midPointStop  offset="0.7" style="stop-color:#687074;stop-opacity:0"/>
	<a:midPointStop  offset="0.5" style="stop-color:#687074;stop-opacity:0"/>
	<a:midPointStop  offset="0.8" style="stop-color:#5B6469;stop-opacity:0"/>
	<a:midPointStop  offset="0.5" style="stop-color:#5B6469;stop-opacity:0"/>
	<a:midPointStop  offset="1" style="stop-color:#576065;stop-opacity:0"/>
</linearGradient>
<path opacity="0.4" fill="url(#SVGID_2_)" enable-background="new    " d="M43,79.125c21.625,0,39.125-17.5,39.125-39.125
	S64.625,0.875,43,0.875S3.875,18.375,3.875,40S21.375,79.125,43,79.125L43,79.125z M43,0c22,0,40,18,40,40S65,80,43,80
	C21,80,3,62,3,40S21,0,43,0L43,0z"/>
<path fill="#FFFFFF" d="M5.75,40.125C5.75,19.625,22.375,2.75,43,2.75l0,0c20.625,0,37.25,16.75,37.25,37.375l0,0
	c0,20.5-16.625,37.125-37.25,37.125l0,0C22.375,77.25,5.75,60.625,5.75,40.125L5.75,40.125z M17.375,14.375
	C10.75,21,6.625,30.125,6.625,40.125l0,0c0,10,4.125,19.125,10.625,25.625l0,0C23.875,72.25,33,76.375,43,76.375l0,0
	c10,0,19.125-4,25.625-10.625l0,0c6.625-6.5,10.625-15.625,10.625-25.625l0,0c0-10-4.125-19.125-10.625-25.75l0,0
	C62.125,7.75,53,3.625,43,3.625l0,0C33,3.625,23.875,7.75,17.375,14.375L17.375,14.375z"/>
<linearGradient id="SVGID_3_" gradientUnits="userSpaceOnUse" x1="-174.5889" y1="150.1113" x2="-140.0905" y2="90.3642" gradientTransform="matrix(1 0 0 -1 200.3398 160.2383)">
	<stop  offset="0" style="stop-color:#E1E3E1"/>
	<stop  offset="0.1" style="stop-color:#C1C5C4"/>
	<stop  offset="0.3" style="stop-color:#9BA1A2"/>
	<stop  offset="0.5" style="stop-color:#7D8487"/>
	<stop  offset="0.7" style="stop-color:#687074;stop-opacity:0"/>
	<stop  offset="0.8" style="stop-color:#5B6469;stop-opacity:0"/>
	<stop  offset="1" style="stop-color:#576065;stop-opacity:0"/>
	<a:midPointStop  offset="0" style="stop-color:#E1E3E1"/>
	<a:midPointStop  offset="0.5" style="stop-color:#E1E3E1"/>
	<a:midPointStop  offset="0.1" style="stop-color:#C1C5C4"/>
	<a:midPointStop  offset="0.5" style="stop-color:#C1C5C4"/>
	<a:midPointStop  offset="0.3" style="stop-color:#9BA1A2"/>
	<a:midPointStop  offset="0.5" style="stop-color:#9BA1A2"/>
	<a:midPointStop  offset="0.5" style="stop-color:#7D8487"/>
	<a:midPointStop  offset="0.5" style="stop-color:#7D8487"/>
	<a:midPointStop  offset="0.7" style="stop-color:#687074;stop-opacity:0"/>
	<a:midPointStop  offset="0.5" style="stop-color:#687074;stop-opacity:0"/>
	<a:midPointStop  offset="0.8" style="stop-color:#5B6469;stop-opacity:0"/>
	<a:midPointStop  offset="0.5" style="stop-color:#5B6469;stop-opacity:0"/>
	<a:midPointStop  offset="1" style="stop-color:#576065;stop-opacity:0"/>
</linearGradient>
<path opacity="0.4" fill="url(#SVGID_3_)" enable-background="new    " d="M43,74.5c-9.25,0-17.875-3.625-24.375-10.125
	S8.5,49.25,8.5,40s3.625-17.875,10.125-24.375S33.75,5.5,43,5.5c9.25,0,17.875,3.625,24.375,10.125S77.5,30.75,77.5,40
	s-3.625,17.875-10.125,24.375S52.25,74.5,43,74.5L43,74.5z M43,73.5c8.875,0,17.375-3.5,23.625-9.75
	C73,57.375,76.375,49,76.375,40.125s-3.5-17.375-9.75-23.625C60.25,10.125,51.875,6.75,43,6.75c-8.875,0-17.375,3.5-23.625,9.75
	C13,22.625,9.5,31.125,9.5,40s3.5,17.375,9.75,23.625C25.625,70,34.125,73.5,43,73.5L43,73.5z"/>
<path fill="#FFFFFF" d="M43.499,39.25"/>
<path fill="#FFFFFF" d="M73.375,56.25c-0.625-0.5-24.75-19.625-24.75-19.625L43,4.5c-0.375,0.125-0.875,0.5-1.125,1l-4,31.25
	L13,55.875c0,0-0.5,0.625-0.75,1c-0.125,0.25-0.125,0.625-0.125,1l0,0l30.75-12.625l30.75,12.625l0,0
	C73.875,57.25,73.625,56.625,73.375,56.25z"/>
<path fill="#565F64" d="M43.25,41L43,46.75l28.25,11.375c1.001,0.5,1.75,0.25,2.5-0.25l-30.125-17
	C43.499,40.75,43.25,40.875,43.25,41z"/>
<linearGradient id="SVGID_4_" gradientUnits="userSpaceOnUse" x1="-141.73" y1="110.998" x2="-143.8544" y2="107.4989" gradientTransform="matrix(1 0 0 -1 200.3398 160.2383)">
	<stop  offset="0" style="stop-color:#27343C"/>
	<stop  offset="1" style="stop-color:#00111E;stop-opacity:0"/>
	<a:midPointStop  offset="0" style="stop-color:#27343C"/>
	<a:midPointStop  offset="0.5" style="stop-color:#27343C"/>
	<a:midPointStop  offset="1" style="stop-color:#00111E;stop-opacity:0"/>
</linearGradient>
<path fill="url(#SVGID_4_)" d="M43.25,41c0,0,1.625,2.875,3.5,4.875c2.625,2.875,6.125,4.875,6.125,4.875l18.374,7.375
	c1.001,0.5,1.75,0.25,2.5-0.25l-30.125-17C43.499,40.75,43.25,40.875,43.25,41z"/>
<path fill="#A4AAAE" fill-opacity="0.6" d="M73.625,56.75c0-0.125-0.125-0.25-0.25-0.5l-25.75-18.875l-3.5,2.25
	c0,0,0.249,0.125,0.375,0c0.375-0.125,1.125-0.25,1.875,0c0.625,0.25,27.25,17.25,27.25,17.25S73.625,56.875,73.625,56.75z"/>
<path fill="#333E46" d="M72.75,55.625l-24-19l0,0l-1.125,0.75l25.75,19C73.25,56.125,73,55.875,72.75,55.625z"/>
<path fill="#565F64" d="M43.625,39.125c-0.126,0.125-0.126,0.125-0.126,0.125s0,0.25,0.25,0.125c0.125-0.125,3.75-2,5-2.75
	l-4.375-30c-0.125-1.125-0.625-1.625-1.5-2l0.5,34.75L43.625,39.125z"/>
<path fill="#A4AAAE" fill-opacity="0.6" d="M41.5,6.625V8.25l-2.75,27.625c0,0.375,0.125,0.75,0.5,1l1.625,1.25L42,7.625
	l0.125-2.375C41.75,5.5,41.625,6,41.5,6.625z"/>
<path fill="#A4AAAE" fill-opacity="0.6" d="M40,38.625l-1.5-1.25L13.125,55.75c0,0-0.75,0.5-0.875,1l0,0l0,0l0,0l0.875-0.5l0,0
	L39.75,39.5C40.25,39.25,40.375,39,40,38.625z"/>
<path fill="#565F64" d="M42.625,41c0-0.125-0.125-0.25-0.25-0.125L12.125,58c0.75,0.5,1.5,0.625,2.5,0.25l28.25-11.375L42.625,41z"
	/>
<linearGradient id="SVGID_5_" gradientUnits="userSpaceOnUse" x1="-147.8662" y1="123.8506" x2="-151.366" y2="129.4753" gradientTransform="matrix(1 0 0 -1 200.3398 160.2383)">
	<stop  offset="0.1" style="stop-color:#02131F"/>
	<stop  offset="0.9" style="stop-color:#02131F;stop-opacity:0"/>
	<a:midPointStop  offset="0.1" style="stop-color:#02131F"/>
	<a:midPointStop  offset="0.5" style="stop-color:#02131F"/>
	<a:midPointStop  offset="0.9" style="stop-color:#02131F;stop-opacity:0"/>
</linearGradient>
<path fill="url(#SVGID_5_)" d="M43.499,39.25l0.126-0.125C43.499,39.25,43.499,39.25,43.499,39.25L43.499,39.25
	c0,0,0,0.125,0.126,0.125h0.125c0.125-0.125,3.75-2,5-2.75L48.25,33l0,0L44.375,6.625c0-0.5-0.125-0.875-0.375-1.125
	c0,0,1.875,25.25,1.875,28C45.875,37.125,43.499,39.25,43.499,39.25z"/>
<linearGradient id="SVGID_6_" gradientUnits="userSpaceOnUse" x1="-157.3623" y1="114.8174" x2="-162.6125" y2="113.3173" gradientTransform="matrix(1 0 0 -1 200.3398 160.2383)">
	<stop  offset="0.2" style="stop-color:#02131F"/>
	<stop  offset="0.9" style="stop-color:#02131F;stop-opacity:0"/>
	<a:midPointStop  offset="0.2" style="stop-color:#02131F"/>
	<a:midPointStop  offset="0.5" style="stop-color:#02131F"/>
	<a:midPointStop  offset="0.9" style="stop-color:#02131F;stop-opacity:0"/>
</linearGradient>
<path fill="url(#SVGID_6_)" fill-opacity="0.8" d="M42.625,41c0-0.125-0.125-0.25-0.25-0.125L12.125,58c0.75,0.5,1.5,0.625,2.5,0.25
	l28.25-11.375L42.625,41z"/>
<linearGradient id="SVGID_7_" gradientUnits="userSpaceOnUse" x1="-171.3506" y1="107.8594" x2="-172.1006" y2="109.7344" gradientTransform="matrix(1 0 0 -1 200.3398 160.2383)">
	<stop  offset="0" style="stop-color:#02131F"/>
	<stop  offset="0.1" style="stop-color:#02131F"/>
	<stop  offset="1" style="stop-color:#02131F;stop-opacity:0"/>
	<a:midPointStop  offset="0" style="stop-color:#02131F"/>
	<a:midPointStop  offset="0.5" style="stop-color:#02131F"/>
	<a:midPointStop  offset="0.1" style="stop-color:#02131F"/>
	<a:midPointStop  offset="0.5" style="stop-color:#02131F"/>
	<a:midPointStop  offset="1" style="stop-color:#02131F;stop-opacity:0"/>
</linearGradient>
<path opacity="0.8" fill="url(#SVGID_7_)" enable-background="new    " d="M14.625,58.125l28.25-11.375l-0.25-5.5
	c-0.5,1.5-1.375,3.125-3.75,4.375l0,0c-1.75,1-18.5,9.25-24.5,12.125C14,58,13.5,58.125,13.25,58.25
	C13.75,58.5,14.125,58.375,14.625,58.125z"/>
<linearGradient id="SVGID_8_" gradientUnits="userSpaceOnUse" x1="-152.8374" y1="138.7207" x2="-157.0874" y2="138.2207" gradientTransform="matrix(1 0 0 -1 200.3398 160.2383)">
	<stop  offset="0.3" style="stop-color:#02131F"/>
	<stop  offset="0.3" style="stop-color:#02131F"/>
	<stop  offset="0.8" style="stop-color:#02131F;stop-opacity:0"/>
	<a:midPointStop  offset="0.3" style="stop-color:#02131F"/>
	<a:midPointStop  offset="0.5" style="stop-color:#02131F"/>
	<a:midPointStop  offset="0.3" style="stop-color:#02131F"/>
	<a:midPointStop  offset="0.5" style="stop-color:#02131F"/>
	<a:midPointStop  offset="0.8" style="stop-color:#02131F;stop-opacity:0"/>
</linearGradient>
<path fill="url(#SVGID_8_)" d="M43.625,39.125c-0.126,0.125-0.126,0.125-0.126,0.125s0,0.25,0.25,0.125c0.125-0.125,3.75-2,5-2.75
	l-4.375-30c-0.125-1.125-0.625-1.625-1.5-2l0.5,34.75L43.625,39.125z"/>
<linearGradient id="SVGID_9_" gradientUnits="userSpaceOnUse" x1="-152.707" y1="138.792" x2="-155.5813" y2="138.4171" gradientTransform="matrix(1 0 0 -1 200.3398 160.2383)">
	<stop  offset="0.4" style="stop-color:#27343C"/>
	<stop  offset="1" style="stop-color:#3B474E;stop-opacity:0"/>
	<a:midPointStop  offset="0.4" style="stop-color:#27343C"/>
	<a:midPointStop  offset="0.5" style="stop-color:#27343C"/>
	<a:midPointStop  offset="1" style="stop-color:#3B474E;stop-opacity:0"/>
</linearGradient>
<path fill="url(#SVGID_9_)" d="M43.625,39.125c-0.126,0.125-0.126,0.125-0.126,0.125s0,0.25,0.25,0.125c0.125-0.125,3.75-2,5-2.75
	l-4.375-30c-0.125-1.125-0.625-1.625-1.5-2l0.5,34.75L43.625,39.125z"/>
<linearGradient id="SVGID_10_" gradientUnits="userSpaceOnUse" x1="-197.791" y1="119.1992" x2="-162.9151" y2="99.0737" gradientTransform="matrix(1 0 0 -1 200.3398 160.2383)">
	<stop  offset="0" style="stop-color:#24303A;stop-opacity:0"/>
	<stop  offset="0" style="stop-color:#25323B;stop-opacity:0"/>
	<stop  offset="0.1" style="stop-color:#27343C"/>
	<a:midPointStop  offset="0" style="stop-color:#24303A;stop-opacity:0"/>
	<a:midPointStop  offset="0.5" style="stop-color:#24303A;stop-opacity:0"/>
	<a:midPointStop  offset="0" style="stop-color:#25323B;stop-opacity:0"/>
	<a:midPointStop  offset="0.5" style="stop-color:#25323B;stop-opacity:0"/>
	<a:midPointStop  offset="0.1" style="stop-color:#27343C"/>
</linearGradient>
<path fill="url(#SVGID_10_)" d="M9.375,55.5C8.5,53.5,3.5,43.75,9,25H6.875c-1.125,3.75-2,6-2.5,9.375c0,0-0.25,1.25-0.375,2.625
	s-0.125,2.125-0.125,3c0,7.5,1.875,11.875,1.875,11.875C7.75,58.125,11.25,63.75,16,68c4.125,3.625,10.5,6.375,15.75,7.375
	C30.875,75.25,15.875,68.875,9.375,55.5z"/>
<linearGradient id="SVGID_11_" gradientUnits="userSpaceOnUse" x1="-157.4033" y1="113.4883" x2="-157.4033" y2="119.4898" gradientTransform="matrix(1 0 0 -1 200.3398 160.2383)">
	<stop  offset="0.3" style="stop-color:#A5ABAF"/>
	<stop  offset="1" style="stop-color:#A5ABAF;stop-opacity:0"/>
	<a:midPointStop  offset="0.3" style="stop-color:#A5ABAF"/>
	<a:midPointStop  offset="0.5" style="stop-color:#A5ABAF"/>
	<a:midPointStop  offset="1" style="stop-color:#A5ABAF;stop-opacity:0"/>
</linearGradient>
<path fill="url(#SVGID_11_)" d="M43.499,40.75h-1.124l0,0c0.125,0,0.25,0,0.25,0.125l0.25,5.75l0,0H43l0.25-5.75
	C43.25,40.75,43.375,40.625,43.499,40.75L43.499,40.75L43.499,40.75z"/>
<linearGradient id="SVGID_12_" gradientUnits="userSpaceOnUse" x1="-137.7769" y1="157.3633" x2="-137.7769" y2="81.1133" gradientTransform="matrix(1 0 0 -1 200.3398 160.2383)">
	<stop  offset="0" style="stop-color:#DEE0DD"/>
	<stop  offset="0" style="stop-color:#C5C9C7"/>
	<stop  offset="0" style="stop-color:#9EA4A5"/>
	<stop  offset="0" style="stop-color:#82898C"/>
	<stop  offset="0" style="stop-color:#71797D"/>
	<stop  offset="0" style="stop-color:#6B7378"/>
	<stop  offset="0.2" style="stop-color:#333F47"/>
	<stop  offset="0.5" style="stop-color:#27343C"/>
	<stop  offset="0.8" style="stop-color:#333F47"/>
	<stop  offset="1" style="stop-color:#434D54"/>
	<a:midPointStop  offset="0" style="stop-color:#DEE0DD"/>
	<a:midPointStop  offset="0.5" style="stop-color:#DEE0DD"/>
	<a:midPointStop  offset="0" style="stop-color:#C5C9C7"/>
	<a:midPointStop  offset="0.5" style="stop-color:#C5C9C7"/>
	<a:midPointStop  offset="0" style="stop-color:#9EA4A5"/>
	<a:midPointStop  offset="0.5" style="stop-color:#9EA4A5"/>
	<a:midPointStop  offset="0" style="stop-color:#82898C"/>
	<a:midPointStop  offset="0.5" style="stop-color:#82898C"/>
	<a:midPointStop  offset="0" style="stop-color:#71797D"/>
	<a:midPointStop  offset="0.5" style="stop-color:#71797D"/>
	<a:midPointStop  offset="0" style="stop-color:#6B7378"/>
	<a:midPointStop  offset="0.5" style="stop-color:#6B7378"/>
	<a:midPointStop  offset="0.2" style="stop-color:#333F47"/>
	<a:midPointStop  offset="0.5" style="stop-color:#333F47"/>
	<a:midPointStop  offset="0.5" style="stop-color:#27343C"/>
	<a:midPointStop  offset="0.5" style="stop-color:#27343C"/>
	<a:midPointStop  offset="0.8" style="stop-color:#333F47"/>
	<a:midPointStop  offset="0.5" style="stop-color:#333F47"/>
	<a:midPointStop  offset="1" style="stop-color:#434D54"/>
</linearGradient>
<path fill="url(#SVGID_12_)" d="M55.5,2.875C68.625,7.875,81,21.625,81,39c0,21-16.75,38.125-38,38.125v2
	c21.25,0,39.125-17.5,39.125-39.125C82.125,22.75,71.125,8.25,55.5,2.875z"/>
<linearGradient id="SVGID_13_" gradientUnits="userSpaceOnUse" x1="-157.3398" y1="159.3633" x2="-156.9648" y2="159.3633" gradientTransform="matrix(1 0 0 -1 200.3398 160.2383)">
	<stop  offset="0" style="stop-color:#DEE0DD"/>
	<stop  offset="0" style="stop-color:#C5C9C7"/>
	<stop  offset="0" style="stop-color:#9EA4A5"/>
	<stop  offset="0" style="stop-color:#82898C"/>
	<stop  offset="0" style="stop-color:#71797D"/>
	<stop  offset="0" style="stop-color:#6B7378"/>
	<stop  offset="0.2" style="stop-color:#333F47"/>
	<stop  offset="0.5" style="stop-color:#27343C"/>
	<stop  offset="0.8" style="stop-color:#333F47"/>
	<stop  offset="1" style="stop-color:#434D54"/>
	<a:midPointStop  offset="0" style="stop-color:#DEE0DD"/>
	<a:midPointStop  offset="0.5" style="stop-color:#DEE0DD"/>
	<a:midPointStop  offset="0" style="stop-color:#C5C9C7"/>
	<a:midPointStop  offset="0.5" style="stop-color:#C5C9C7"/>
	<a:midPointStop  offset="0" style="stop-color:#9EA4A5"/>
	<a:midPointStop  offset="0.5" style="stop-color:#9EA4A5"/>
	<a:midPointStop  offset="0" style="stop-color:#82898C"/>
	<a:midPointStop  offset="0.5" style="stop-color:#82898C"/>
	<a:midPointStop  offset="0" style="stop-color:#71797D"/>
	<a:midPointStop  offset="0.5" style="stop-color:#71797D"/>
	<a:midPointStop  offset="0" style="stop-color:#6B7378"/>
	<a:midPointStop  offset="0.5" style="stop-color:#6B7378"/>
	<a:midPointStop  offset="0.2" style="stop-color:#333F47"/>
	<a:midPointStop  offset="0.5" style="stop-color:#333F47"/>
	<a:midPointStop  offset="0.5" style="stop-color:#27343C"/>
	<a:midPointStop  offset="0.5" style="stop-color:#27343C"/>
	<a:midPointStop  offset="0.8" style="stop-color:#333F47"/>
	<a:midPointStop  offset="0.5" style="stop-color:#333F47"/>
	<a:midPointStop  offset="1" style="stop-color:#434D54"/>
</linearGradient>
<path fill="url(#SVGID_13_)" d="M43.375,0.875c-0.125,0-0.25,0-0.375,0C43.125,0.875,43.25,0.875,43.375,0.875L43.375,0.875z"/>
<linearGradient id="SVGID_14_" gradientUnits="userSpaceOnUse" x1="-125.7275" y1="150.124" x2="-142.6022" y2="125.3746" gradientTransform="matrix(1 0 0 -1 200.3398 160.2383)">
	<stop  offset="0.7" style="stop-color:#27343C"/>
	<stop  offset="0.7" style="stop-color:#2B373F"/>
	<stop  offset="0.7" style="stop-color:#36424A"/>
	<stop  offset="0.7" style="stop-color:#49545B"/>
	<stop  offset="0.8" style="stop-color:#646D73;stop-opacity:0"/>
	<stop  offset="0.8" style="stop-color:#868D92;stop-opacity:0"/>
	<stop  offset="0.8" style="stop-color:#B0B5B8;stop-opacity:0"/>
	<stop  offset="0.8" style="stop-color:#E1E3E4;stop-opacity:0"/>
	<stop  offset="0.8" style="stop-color:#FFFFFF;stop-opacity:0"/>
	<a:midPointStop  offset="0.7" style="stop-color:#27343C"/>
	<a:midPointStop  offset="0.5" style="stop-color:#27343C"/>
	<a:midPointStop  offset="0.7" style="stop-color:#2B373F"/>
	<a:midPointStop  offset="0.5" style="stop-color:#2B373F"/>
	<a:midPointStop  offset="0.7" style="stop-color:#36424A"/>
	<a:midPointStop  offset="0.5" style="stop-color:#36424A"/>
	<a:midPointStop  offset="0.7" style="stop-color:#49545B"/>
	<a:midPointStop  offset="0.5" style="stop-color:#49545B"/>
	<a:midPointStop  offset="0.8" style="stop-color:#646D73;stop-opacity:0"/>
	<a:midPointStop  offset="0.5" style="stop-color:#646D73;stop-opacity:0"/>
	<a:midPointStop  offset="0.8" style="stop-color:#868D92;stop-opacity:0"/>
	<a:midPointStop  offset="0.5" style="stop-color:#868D92;stop-opacity:0"/>
	<a:midPointStop  offset="0.8" style="stop-color:#B0B5B8;stop-opacity:0"/>
	<a:midPointStop  offset="0.5" style="stop-color:#B0B5B8;stop-opacity:0"/>
	<a:midPointStop  offset="0.8" style="stop-color:#E1E3E4;stop-opacity:0"/>
	<a:midPointStop  offset="0.5" style="stop-color:#E1E3E4;stop-opacity:0"/>
	<a:midPointStop  offset="0.8" style="stop-color:#FFFFFF;stop-opacity:0"/>
</linearGradient>
<path fill="url(#SVGID_14_)" d="M76.5,25.25C67.75,5.125,48,4,46.875,3.875c0,0,0,0-0.125,0l0,0c15.125,2.75,24.75,12.625,28.125,23
	V27c1.5,4,2.25,8.25,2.375,12.875c0.125,4.375-0.875,9.25-2.75,13.75C74.375,54.25,74.25,55,74.125,55h2
	C82.125,43.75,79.5,32.375,76.5,25.25z"/>
<path fill="#FBFBFB" d="M5.75,40.125C5.75,19.625,22.375,2.75,43,2.75l0,0c20.625,0,37.25,16.75,37.25,37.375l0,0
	c0,20.5-16.625,37.125-37.25,37.125l0,0C22.375,77.25,5.75,60.625,5.75,40.125L5.75,40.125z M17.375,14.375
	C10.75,21,6.625,30.125,6.625,40.125l0,0c0,10,4.125,19.125,10.625,25.625l0,0C23.875,72.25,33,76.375,43,76.375l0,0
	c10,0,19.125-4,25.625-10.625l0,0c6.625-6.5,10.625-15.625,10.625-25.625l0,0c0-10-4.125-19.125-10.625-25.75l0,0
	C62.125,7.75,53,3.625,43,3.625l0,0C33,3.625,23.875,7.75,17.375,14.375L17.375,14.375z"/>
<path fill="#333F47" d="M12.875,56L12.875,56l25.5-18.375c1.375,0.75,3.625,1.75,3.875,1.75C42.5,39.5,42.5,39.25,42.5,39.25
	l-3.125-2.625c-0.375-0.25-0.5-0.625-0.5-1l3-30.125C41.75,5.625,41.75,5.875,41.625,6C41.5,6.25,41.5,6.375,41.5,6.625
	L37.125,36.75l-24,18.875C13,55.75,12.875,55.875,12.875,56z"/>
</svg>
